<svg width="15" height="15" viewBox="0 0 15 15" fill="none" xmlns="http://www.w3.org/2000/svg">
<g clip-path="url(#clip0_15_240)">
<path d="M7.54238 11.1315C6.63652 11.1315 5.76776 10.7716 5.12722 10.1311C4.48668 9.49056 4.12683 8.6218 4.12683 7.71594C4.12683 6.81008 4.48668 5.94133 5.12722 5.30079C5.76776 4.66025 6.63652 4.30039 7.54238 4.30039C8.44824 4.30039 9.317 4.66025 9.95754 5.30079C10.5981 5.94133 10.9579 6.81008 10.9579 7.71594C10.9579 8.6218 10.5981 9.49056 9.95754 10.1311C9.317 10.7716 8.44824 11.1315 7.54238 11.1315ZM6.97312 1.4541H8.11163V3.16188H6.97312V1.4541ZM6.97312 12.27H8.11163V13.9778H6.97312V12.27ZM2.71222 3.69072L3.51715 2.88579L4.72455 4.09318L3.91962 4.89812L2.71222 3.69129V3.69072ZM10.3602 11.3387L11.1651 10.5338L12.3725 11.7412L11.5676 12.5461L10.3602 11.3387ZM11.5676 2.88522L12.3725 3.69072L11.1651 4.89812L10.3602 4.09318L11.5676 2.88579V2.88522ZM3.91962 10.5338L4.72455 11.3387L3.51715 12.5461L2.71222 11.7412L3.91962 10.5338ZM13.8042 7.14669V8.2852H12.0964V7.14669H13.8042ZM2.98831 7.14669V8.2852H1.28053V7.14669H2.98831Z" fill="white"/>
</g>
<defs>
<clipPath id="clip0_15_240">
<rect width="13.6622" height="13.6622" fill="white" transform="translate(0.711319 0.884766)"/>
</clipPath>
</defs>
</svg>
