<svg width="227" height="184" viewBox="0 0 227 184" fill="none" xmlns="http://www.w3.org/2000/svg">
<ellipse cx="81.6698" cy="70.0019" rx="24.8314" ry="25" fill="url(#paint0_radial_1_2310)"/>
<g opacity="0.67" filter="url(#filter0_f_1_2310)">
<path d="M50.0795 102.098C50.2131 81.4919 36.3274 45.0365 58.3997 45.031C80.4721 45.0254 171.662 74.3069 181.579 110.013C181.445 130.619 125.229 138.885 103.156 138.891C81.0842 138.896 49.946 122.705 50.0795 102.098Z" fill="url(#paint1_linear_1_2310)" fill-opacity="0.3"/>
</g>
<g filter="url(#filter1_ii_1_2310)">
<path fill-rule="evenodd" clip-rule="evenodd" d="M90.8046 138.619H76.0878C59.7243 138.619 46.459 125.354 46.459 108.99C46.459 92.6265 59.7243 79.3612 76.0878 79.3612H77.5006C83.185 79.3612 88.5126 80.8892 93.095 83.5568C99.0227 65.7886 115.792 52.9797 135.553 52.9797H137.481C161.13 52.9797 180.301 72.1507 180.301 95.7994C180.301 119.448 161.13 138.619 137.481 138.619H90.8046V138.619Z" fill="white"/>
</g>
<defs>
<filter id="filter0_f_1_2310" x="0.890625" y="0.0309448" width="225.688" height="183.86" filterUnits="userSpaceOnUse" color-interpolation-filters="sRGB">
<feFlood flood-opacity="0" result="BackgroundImageFix"/>
<feBlend mode="normal" in="SourceGraphic" in2="BackgroundImageFix" result="shape"/>
<feGaussianBlur stdDeviation="22.5" result="effect1_foregroundBlur_1_2310"/>
</filter>
<filter id="filter1_ii_1_2310" x="28.459" y="37.9797" width="159.842" height="111.639" filterUnits="userSpaceOnUse" color-interpolation-filters="sRGB">
<feFlood flood-opacity="0" result="BackgroundImageFix"/>
<feBlend mode="normal" in="SourceGraphic" in2="BackgroundImageFix" result="shape"/>
<feColorMatrix in="SourceAlpha" type="matrix" values="0 0 0 0 0 0 0 0 0 0 0 0 0 0 0 0 0 0 127 0" result="hardAlpha"/>
<feOffset dx="8" dy="-15"/>
<feGaussianBlur stdDeviation="15"/>
<feComposite in2="hardAlpha" operator="arithmetic" k2="-1" k3="1"/>
<feColorMatrix type="matrix" values="0 0 0 0 0 0 0 0 0 0 0 0 0 0 0 0 0 0 0.2 0"/>
<feBlend mode="normal" in2="shape" result="effect1_innerShadow_1_2310"/>
<feColorMatrix in="SourceAlpha" type="matrix" values="0 0 0 0 0 0 0 0 0 0 0 0 0 0 0 0 0 0 127 0" result="hardAlpha"/>
<feOffset dx="-18" dy="11"/>
<feGaussianBlur stdDeviation="15"/>
<feComposite in2="hardAlpha" operator="arithmetic" k2="-1" k3="1"/>
<feColorMatrix type="matrix" values="0 0 0 0 1 0 0 0 0 1 0 0 0 0 1 0 0 0 1 0"/>
<feBlend mode="normal" in2="effect1_innerShadow_1_2310" result="effect2_innerShadow_1_2310"/>
</filter>
<radialGradient id="paint0_radial_1_2310" cx="0" cy="0" r="1" gradientUnits="userSpaceOnUse" gradientTransform="translate(91.5498 56.3746) rotate(131.944) scale(51.9321 51.8959)">
<stop stop-color="#FFF72C"/>
<stop offset="1" stop-color="#DF7800"/>
</radialGradient>
<linearGradient id="paint1_linear_1_2310" x1="175.406" y1="93.4218" x2="32.3344" y2="93.4658" gradientUnits="userSpaceOnUse">
<stop stop-color="#254659"/>
<stop offset="1" stop-color="#023553"/>
</linearGradient>
</defs>
</svg>
